<svg width="32" height="32" viewBox="0 0 32 32" fill="none" xmlns="http://www.w3.org/2000/svg">
  <!-- Background circle -->
  <circle cx="16" cy="16" r="16" fill="url(#gradient1)"/>
  
  <!-- Dollar sign with flowing effect -->
  <path d="M16 6C16 6 18 8 18 10C18 12 16 14 16 16C16 18 18 20 18 22C18 24 16 26 16 26" stroke="white" stroke-width="2" stroke-linecap="round" fill="none"/>
  <path d="M14 10H18" stroke="white" stroke-width="2" stroke-linecap="round"/>
  <path d="M14 22H18" stroke="white" stroke-width="2" stroke-linecap="round"/>
  
  <!-- Flowing lines representing money flow -->
  <path d="M8 12C8 12 10 10 12 10C14 10 16 12 16 12" stroke="white" stroke-width="1.5" stroke-linecap="round" opacity="0.7"/>
  <path d="M16 20C16 20 18 18 20 18C22 18 24 20 24 20" stroke="white" stroke-width="1.5" stroke-linecap="round" opacity="0.7"/>
  
  <!-- Small dots representing flow -->
  <circle cx="10" cy="10" r="1" fill="white" opacity="0.8"/>
  <circle cx="22" cy="22" r="1" fill="white" opacity="0.8"/>
  
  <!-- Gradient definitions -->
  <defs>
    <linearGradient id="gradient1" x1="0%" y1="0%" x2="100%" y2="100%">
      <stop offset="0%" style="stop-color:#667eea;stop-opacity:1" />
      <stop offset="100%" style="stop-color:#764ba2;stop-opacity:1" />
    </linearGradient>
  </defs>
</svg>